<svg height="3550" width="720" xmlns="http://www.w3.org/2000/svg">
<rect height="3550" fill="#555" width="720"></rect>
<text fill="#7f7" font-family="Courier New" font-size="12" xml:space="preserve">
<tspan x="10" y="26">77 megabytes installed</tspan>
<tspan x="10" y="42"></tspan>
<tspan x="10" y="58">node_modules</tspan>
<tspan x="10" y="74">└─┬ compoxure@2.1.18 </tspan>
<tspan x="10" y="90">  ├─┬ accepts@1.3.3 </tspan>
<tspan x="10" y="106">  │ ├─┬ mime-types@2.1.15 </tspan>
<tspan x="10" y="122">  │ │ └── mime-db@1.27.0 </tspan>
<tspan x="10" y="138">  │ └── negotiator@0.6.1 </tspan>
<tspan x="10" y="154">  ├── async@0.9.2 </tspan>
<tspan x="10" y="170">  ├─┬ body-parser@1.17.1 </tspan>
<tspan x="10" y="186">  │ ├── bytes@2.4.0 </tspan>
<tspan x="10" y="202">  │ ├── content-type@1.0.2 </tspan>
<tspan x="10" y="218">  │ ├─┬ debug@2.6.1 </tspan>
<tspan x="10" y="234">  │ │ └── ms@0.7.2 </tspan>
<tspan x="10" y="250">  │ ├── depd@1.1.0 </tspan>
<tspan x="10" y="266">  │ ├─┬ http-errors@1.6.1 </tspan>
<tspan x="10" y="282">  │ │ ├── setprototypeof@1.0.3 </tspan>
<tspan x="10" y="298">  │ │ └── statuses@1.3.1 </tspan>
<tspan x="10" y="314">  │ ├── iconv-lite@0.4.15 </tspan>
<tspan x="10" y="330">  │ ├─┬ on-finished@2.3.0 </tspan>
<tspan x="10" y="346">  │ │ └── ee-first@1.1.1 </tspan>
<tspan x="10" y="362">  │ ├── qs@6.4.0 </tspan>
<tspan x="10" y="378">  │ ├─┬ raw-body@2.2.0 </tspan>
<tspan x="10" y="394">  │ │ └── unpipe@1.0.0 </tspan>
<tspan x="10" y="410">  │ └─┬ type-is@1.6.15 </tspan>
<tspan x="10" y="426">  │   └── media-typer@0.3.0 </tspan>
<tspan x="10" y="442">  ├─┬ connect-query@0.2.0 </tspan>
<tspan x="10" y="458">  │ └── qs@1.1.0 </tspan>
<tspan x="10" y="474">  ├─┬ cookie-parser@1.4.3 </tspan>
<tspan x="10" y="490">  │ ├── cookie@0.3.1 </tspan>
<tspan x="10" y="506">  │ └── cookie-signature@1.0.6 </tspan>
<tspan x="10" y="522">  ├── html-entities@1.2.0 </tspan>
<tspan x="10" y="538">  ├─┬ htmlparser2@3.9.2 </tspan>
<tspan x="10" y="554">  │ ├── domelementtype@1.3.0 </tspan>
<tspan x="10" y="570">  │ ├── domhandler@2.3.0 </tspan>
<tspan x="10" y="586">  │ ├─┬ domutils@1.5.1 </tspan>
<tspan x="10" y="602">  │ │ └─┬ dom-serializer@0.1.0 </tspan>
<tspan x="10" y="618">  │ │   └── domelementtype@1.1.3 </tspan>
<tspan x="10" y="634">  │ ├── entities@1.1.1 </tspan>
<tspan x="10" y="650">  │ ├── inherits@2.0.3 </tspan>
<tspan x="10" y="666">  │ └─┬ readable-stream@2.2.9 </tspan>
<tspan x="10" y="682">  │   ├── buffer-shims@1.0.0 </tspan>
<tspan x="10" y="698">  │   ├── core-util-is@1.0.2 </tspan>
<tspan x="10" y="714">  │   ├── isarray@1.0.0 </tspan>
<tspan x="10" y="730">  │   ├── process-nextick-args@1.0.7 </tspan>
<tspan x="10" y="746">  │   ├── string_decoder@1.0.0 </tspan>
<tspan x="10" y="762">  │   └── util-deprecate@1.0.2 </tspan>
<tspan x="10" y="778">  ├── http-status-codes@1.1.6 </tspan>
<tspan x="10" y="794">  ├── lodash@3.6.0 </tspan>
<tspan x="10" y="810">  ├─┬ morgan@1.8.1 </tspan>
<tspan x="10" y="826">  │ ├── basic-auth@1.1.0 </tspan>
<tspan x="10" y="842">  │ └── on-headers@1.0.1 </tspan>
<tspan x="10" y="858">  ├─┬ parxer@2.0.3 </tspan>
<tspan x="10" y="874">  │ └─┬ handlebars@3.0.3 </tspan>
<tspan x="10" y="890">  │   ├─┬ optimist@0.6.1 </tspan>
<tspan x="10" y="906">  │   │ ├── minimist@0.0.10 </tspan>
<tspan x="10" y="922">  │   │ └── wordwrap@0.0.3 </tspan>
<tspan x="10" y="938">  │   ├─┬ source-map@0.1.43 </tspan>
<tspan x="10" y="954">  │   │ └── amdefine@1.0.1 </tspan>
<tspan x="10" y="970">  │   └─┬ uglify-js@2.3.6 </tspan>
<tspan x="10" y="986">  │     ├── async@0.2.10 </tspan>
<tspan x="10" y="1002">  │     └── optimist@0.3.7 </tspan>
<tspan x="10" y="1018">  ├─┬ reliable-get@1.0.5 </tspan>
<tspan x="10" y="1034">  │ ├─┬ async-deco@7.0.4 </tspan>
<tspan x="10" y="1050">  │ │ ├─┬ es6-promisify@3.0.0 </tspan>
<tspan x="10" y="1066">  │ │ │ └── es6-promise@3.3.1 </tspan>
<tspan x="10" y="1082">  │ │ ├─┬ little-ds-toolkit@0.2.1 </tspan>
<tspan x="10" y="1098">  │ │ │ └── sizeof@1.0.0 </tspan>
<tspan x="10" y="1114">  │ │ ├── lodash@4.17.4 </tspan>
<tspan x="10" y="1130">  │ │ ├── require-all@2.2.0 </tspan>
<tspan x="10" y="1146">  │ │ ├── setimmediate@1.0.5 </tspan>
<tspan x="10" y="1162">  │ │ └── uuid@2.0.3 </tspan>
<tspan x="10" y="1178">  │ ├─┬ cache-manager@2.4.0 </tspan>
<tspan x="10" y="1194">  │ │ ├── async@1.5.2 </tspan>
<tspan x="10" y="1210">  │ │ └─┬ lru-cache@4.0.0 </tspan>
<tspan x="10" y="1226">  │ │   ├── pseudomap@1.0.2 </tspan>
<tspan x="10" y="1242">  │ │   └── yallist@2.1.2 </tspan>
<tspan x="10" y="1258">  │ ├─┬ cache-manager-redis@0.2.6 </tspan>
<tspan x="10" y="1274">  │ │ ├─┬ cache-manager@1.5.0 </tspan>
<tspan x="10" y="1290">  │ │ │ └── async@1.5.2 </tspan>
<tspan x="10" y="1306">  │ │ ├─┬ redis-url@1.2.1 </tspan>
<tspan x="10" y="1322">  │ │ │ └─┬ redis@2.7.1 </tspan>
<tspan x="10" y="1338">  │ │ │   ├── double-ended-queue@2.1.0-0 </tspan>
<tspan x="10" y="1354">  │ │ │   ├── redis-commands@1.3.1 </tspan>
<tspan x="10" y="1370">  │ │ │   └── redis-parser@2.6.0 </tspan>
<tspan x="10" y="1386">  │ │ └─┬ sol-redis-pool@0.3.2 </tspan>
<tspan x="10" y="1402">  │ │   └── generic-pool@2.2.1 </tspan>
<tspan x="10" y="1418">  │ ├── connect-route@0.1.5 </tspan>
<tspan x="10" y="1434">  │ ├─┬ hogan.js@3.0.2 </tspan>
<tspan x="10" y="1450">  │ │ ├── mkdirp@0.3.0 </tspan>
<tspan x="10" y="1466">  │ │ └─┬ nopt@1.0.10 </tspan>
<tspan x="10" y="1482">  │ │   └── abbrev@1.1.0 </tspan>
<tspan x="10" y="1498">  │ ├── lodash@2.4.2 </tspan>
<tspan x="10" y="1514">  │ ├─┬ memoize-cache@3.3.2 </tspan>
<tspan x="10" y="1530">  │ │ ├─┬ async-deco@6.2.3 </tspan>
<tspan x="10" y="1546">  │ │ │ ├── little-ds-toolkit@0.2.1 </tspan>
<tspan x="10" y="1562">  │ │ │ └── lodash@4.17.4 </tspan>
<tspan x="10" y="1578">  │ │ ├── bluebird@3.5.0 </tspan>
<tspan x="10" y="1594">  │ │ ├── little-ds-toolkit@0.0.2 </tspan>
<tspan x="10" y="1610">  │ │ ├── md5-o-matic@0.1.1 </tspan>
<tspan x="10" y="1626">  │ │ └─┬ snappy@5.0.5 </tspan>
<tspan x="10" y="1642">  │ │   ├── bindings@1.2.1 </tspan>
<tspan x="10" y="1658">  │ │   ├── nan@2.3.5 </tspan>
<tspan x="10" y="1674">  │ │   └─┬ node-gyp@3.4.0 </tspan>
<tspan x="10" y="1690">  │ │     ├─┬ fstream@1.0.11 </tspan>
<tspan x="10" y="1706">  │ │     │ └─┬ mkdirp@0.5.1 </tspan>
<tspan x="10" y="1722">  │ │     │   └── minimist@0.0.8 </tspan>
<tspan x="10" y="1738">  │ │     ├─┬ glob@7.1.1 </tspan>
<tspan x="10" y="1754">  │ │     │ ├── fs.realpath@1.0.0 </tspan>
<tspan x="10" y="1770">  │ │     │ ├─┬ inflight@1.0.6 </tspan>
<tspan x="10" y="1786">  │ │     │ │ └── wrappy@1.0.2 </tspan>
<tspan x="10" y="1802">  │ │     │ ├── once@1.4.0 </tspan>
<tspan x="10" y="1818">  │ │     │ └── path-is-absolute@1.0.1 </tspan>
<tspan x="10" y="1834">  │ │     ├── graceful-fs@4.1.11 </tspan>
<tspan x="10" y="1850">  │ │     ├─┬ minimatch@3.0.3 </tspan>
<tspan x="10" y="1866">  │ │     │ └─┬ brace-expansion@1.1.7 </tspan>
<tspan x="10" y="1882">  │ │     │   ├── balanced-match@0.4.2 </tspan>
<tspan x="10" y="1898">  │ │     │   └── concat-map@0.0.1 </tspan>
<tspan x="10" y="1914">  │ │     ├─┬ mkdirp@0.5.1 </tspan>
<tspan x="10" y="1930">  │ │     │ └── minimist@0.0.8 </tspan>
<tspan x="10" y="1946">  │ │     ├── nopt@3.0.6 </tspan>
<tspan x="10" y="1962">  │ │     ├─┬ npmlog@3.1.2 </tspan>
<tspan x="10" y="1978">  │ │     │ ├─┬ are-we-there-yet@1.1.2 </tspan>
<tspan x="10" y="1994">  │ │     │ │ └── delegates@1.0.0 </tspan>
<tspan x="10" y="2010">  │ │     │ ├── console-control-strings@1.1.0 </tspan>
<tspan x="10" y="2026">  │ │     │ ├─┬ gauge@2.6.0 </tspan>
<tspan x="10" y="2042">  │ │     │ │ ├── aproba@1.1.1 </tspan>
<tspan x="10" y="2058">  │ │     │ │ ├── has-color@0.1.7 </tspan>
<tspan x="10" y="2074">  │ │     │ │ ├── has-unicode@2.0.1 </tspan>
<tspan x="10" y="2090">  │ │     │ │ ├── object-assign@4.1.1 </tspan>
<tspan x="10" y="2106">  │ │     │ │ ├── signal-exit@3.0.2 </tspan>
<tspan x="10" y="2122">  │ │     │ │ ├─┬ string-width@1.0.2 </tspan>
<tspan x="10" y="2138">  │ │     │ │ │ ├── code-point-at@1.1.0 </tspan>
<tspan x="10" y="2154">  │ │     │ │ │ └─┬ is-fullwidth-code-point@1.0.0 </tspan>
<tspan x="10" y="2170">  │ │     │ │ │   └── number-is-nan@1.0.1 </tspan>
<tspan x="10" y="2186">  │ │     │ │ ├─┬ strip-ansi@3.0.1 </tspan>
<tspan x="10" y="2202">  │ │     │ │ │ └── ansi-regex@2.1.1 </tspan>
<tspan x="10" y="2218">  │ │     │ │ └── wide-align@1.1.0 </tspan>
<tspan x="10" y="2234">  │ │     │ └── set-blocking@2.0.0 </tspan>
<tspan x="10" y="2250">  │ │     ├─┬ osenv@0.1.4 </tspan>
<tspan x="10" y="2266">  │ │     │ ├── os-homedir@1.0.2 </tspan>
<tspan x="10" y="2282">  │ │     │ └── os-tmpdir@1.0.2 </tspan>
<tspan x="10" y="2298">  │ │     ├─┬ path-array@1.0.1 </tspan>
<tspan x="10" y="2314">  │ │     │ └─┬ array-index@1.0.0 </tspan>
<tspan x="10" y="2330">  │ │     │   └─┬ es6-symbol@3.1.1 </tspan>
<tspan x="10" y="2346">  │ │     │     ├── d@1.0.0 </tspan>
<tspan x="10" y="2362">  │ │     │     └─┬ es5-ext@0.10.15 </tspan>
<tspan x="10" y="2378">  │ │     │       └── es6-iterator@2.0.1 </tspan>
<tspan x="10" y="2394">  │ │     ├── rimraf@2.6.1 </tspan>
<tspan x="10" y="2410">  │ │     ├── semver@5.3.0 </tspan>
<tspan x="10" y="2426">  │ │     ├─┬ tar@2.2.1 </tspan>
<tspan x="10" y="2442">  │ │     │ └── block-stream@0.0.9 </tspan>
<tspan x="10" y="2458">  │ │     └─┬ which@1.2.14 </tspan>
<tspan x="10" y="2474">  │ │       └── isexe@2.0.0 </tspan>
<tspan x="10" y="2490">  │ ├── memoize-cache-utils@0.0.2 </tspan>
<tspan x="10" y="2506">  │ └── sf@0.1.8 </tspan>
<tspan x="10" y="2522">  ├─┬ request@2.81.0 </tspan>
<tspan x="10" y="2538">  │ ├── aws-sign2@0.6.0 </tspan>
<tspan x="10" y="2554">  │ ├── aws4@1.6.0 </tspan>
<tspan x="10" y="2570">  │ ├── caseless@0.12.0 </tspan>
<tspan x="10" y="2586">  │ ├─┬ combined-stream@1.0.5 </tspan>
<tspan x="10" y="2602">  │ │ └── delayed-stream@1.0.0 </tspan>
<tspan x="10" y="2618">  │ ├── extend@3.0.0 </tspan>
<tspan x="10" y="2634">  │ ├── forever-agent@0.6.1 </tspan>
<tspan x="10" y="2650">  │ ├─┬ form-data@2.1.4 </tspan>
<tspan x="10" y="2666">  │ │ └── asynckit@0.4.0 </tspan>
<tspan x="10" y="2682">  │ ├─┬ har-validator@4.2.1 </tspan>
<tspan x="10" y="2698">  │ │ ├─┬ ajv@4.11.7 </tspan>
<tspan x="10" y="2714">  │ │ │ ├── co@4.6.0 </tspan>
<tspan x="10" y="2730">  │ │ │ └─┬ json-stable-stringify@1.0.1 </tspan>
<tspan x="10" y="2746">  │ │ │   └── jsonify@0.0.0 </tspan>
<tspan x="10" y="2762">  │ │ └── har-schema@1.0.5 </tspan>
<tspan x="10" y="2778">  │ ├─┬ hawk@3.1.3 </tspan>
<tspan x="10" y="2794">  │ │ ├── boom@2.10.1 </tspan>
<tspan x="10" y="2810">  │ │ ├── cryptiles@2.0.5 </tspan>
<tspan x="10" y="2826">  │ │ ├── hoek@2.16.3 </tspan>
<tspan x="10" y="2842">  │ │ └── sntp@1.0.9 </tspan>
<tspan x="10" y="2858">  │ ├─┬ http-signature@1.1.1 </tspan>
<tspan x="10" y="2874">  │ │ ├── assert-plus@0.2.0 </tspan>
<tspan x="10" y="2890">  │ │ ├─┬ jsprim@1.4.0 </tspan>
<tspan x="10" y="2906">  │ │ │ ├── assert-plus@1.0.0 </tspan>
<tspan x="10" y="2922">  │ │ │ ├── extsprintf@1.0.2 </tspan>
<tspan x="10" y="2938">  │ │ │ ├── json-schema@0.2.3 </tspan>
<tspan x="10" y="2954">  │ │ │ └── verror@1.3.6 </tspan>
<tspan x="10" y="2970">  │ │ └─┬ sshpk@1.13.0 </tspan>
<tspan x="10" y="2986">  │ │   ├── asn1@0.2.3 </tspan>
<tspan x="10" y="3002">  │ │   ├── assert-plus@1.0.0 </tspan>
<tspan x="10" y="3018">  │ │   ├── bcrypt-pbkdf@1.0.1 </tspan>
<tspan x="10" y="3034">  │ │   ├─┬ dashdash@1.14.1 </tspan>
<tspan x="10" y="3050">  │ │   │ └── assert-plus@1.0.0 </tspan>
<tspan x="10" y="3066">  │ │   ├── ecc-jsbn@0.1.1 </tspan>
<tspan x="10" y="3082">  │ │   ├─┬ getpass@0.1.6 </tspan>
<tspan x="10" y="3098">  │ │   │ └── assert-plus@1.0.0 </tspan>
<tspan x="10" y="3114">  │ │   ├── jodid25519@1.0.2 </tspan>
<tspan x="10" y="3130">  │ │   ├── jsbn@0.1.1 </tspan>
<tspan x="10" y="3146">  │ │   └── tweetnacl@0.14.5 </tspan>
<tspan x="10" y="3162">  │ ├── is-typedarray@1.0.0 </tspan>
<tspan x="10" y="3178">  │ ├── isstream@0.1.2 </tspan>
<tspan x="10" y="3194">  │ ├── json-stringify-safe@5.0.1 </tspan>
<tspan x="10" y="3210">  │ ├── oauth-sign@0.8.2 </tspan>
<tspan x="10" y="3226">  │ ├── performance-now@0.2.0 </tspan>
<tspan x="10" y="3242">  │ ├── safe-buffer@5.0.1 </tspan>
<tspan x="10" y="3258">  │ ├── stringstream@0.0.5 </tspan>
<tspan x="10" y="3274">  │ ├─┬ tough-cookie@2.3.2 </tspan>
<tspan x="10" y="3290">  │ │ └── punycode@1.4.1 </tspan>
<tspan x="10" y="3306">  │ ├── tunnel-agent@0.6.0 </tspan>
<tspan x="10" y="3322">  │ └── uuid@3.0.1 </tspan>
<tspan x="10" y="3338">  ├─┬ serve-static@1.12.1 </tspan>
<tspan x="10" y="3354">  │ ├── encodeurl@1.0.1 </tspan>
<tspan x="10" y="3370">  │ ├── escape-html@1.0.3 </tspan>
<tspan x="10" y="3386">  │ ├── parseurl@1.3.1 </tspan>
<tspan x="10" y="3402">  │ └─┬ send@0.15.1 </tspan>
<tspan x="10" y="3418">  │   ├── destroy@1.0.4 </tspan>
<tspan x="10" y="3434">  │   ├── etag@1.8.0 </tspan>
<tspan x="10" y="3450">  │   ├── fresh@0.5.0 </tspan>
<tspan x="10" y="3466">  │   ├── mime@1.3.4 </tspan>
<tspan x="10" y="3482">  │   └── range-parser@1.2.0 </tspan>
<tspan x="10" y="3498">  └─┬ ware@1.3.0 </tspan>
<tspan x="10" y="3514">    └─┬ wrap-fn@0.1.5 </tspan>
<tspan x="10" y="3530">      └── co@3.1.0</tspan>
</text>
</svg>
